<svg width="81" height="75" viewBox="0 0 81 75" fill="none" xmlns="http://www.w3.org/2000/svg">
<path d="M50.1915 60.8333V66.9822C50.1915 70.3764 47.4368 73.1312 44.0426 73.1312H37.8936C34.4994 73.1312 31.7447 70.3764 31.7447 66.9822V60.8333H50.1915ZM62.4895 27.014C62.4895 15.1281 52.854 5.49268 40.9681 5.49268C29.0822 5.49268 19.4468 15.1281 19.4468 27.014C19.4468 42.3864 31.7447 42.3864 31.7447 60.8333H50.1915C50.1915 42.3864 62.4895 42.3864 62.4895 27.014Z" stroke="#020202" stroke-width="2"/>
<path d="M6.55865 58.3483L10.906 54.001M71.0304 6.17446L75.3777 1.82715M6.55865 1.82715L10.906 6.17446M71.0304 54.001L75.3777 58.3483M1 30.0877H7.14895M74.7874 30.0877H79.8286" stroke="#020202" stroke-width="2" stroke-linecap="square"/>
</svg>
