<svg width="236" height="39" viewBox="0 0 236 39" fill="none" xmlns="http://www.w3.org/2000/svg">
<path d="M16.2516 37.7992H8.93413M16.2516 37.7992V27.635M16.2516 37.7992H25.9618M25.9618 37.7992V28.0253L21.1067 25.2932M25.9618 37.7992V37.3787M16.2516 22.5611V13.7585L8.93413 17.4466M16.2516 22.5611V27.635M16.2516 22.5611L21.1067 25.2932M8.93413 37.7992H1.6167V21.1347L8.93413 17.4466M8.93413 37.7992V31.7332L16.2516 27.635M21.1067 25.2932V8.5752L8.93413 1.875V17.4466" stroke="#020202" stroke-width="2.14591"/>
<path d="M40.7017 26.3334L42.213 22.0828H49.3918L50.9268 26.3334H53.3591L47.1012 9.26011H44.5272L38.293 26.3334H40.7017ZM45.519 12.944C45.6371 12.5898 45.7552 12.1883 45.8024 11.9522C45.8496 12.2119 45.9677 12.6134 46.0858 12.944L48.707 20.0756H42.9214L45.519 12.944Z" fill="#020202"/>
<path d="M61.8629 14.6915C61.4142 14.597 61.0836 14.5498 60.6821 14.5498C59.1 14.5498 57.9429 15.3527 57.4706 16.557L57.3289 14.8095H55.2508V26.3334H57.4706V20.2173C57.4706 17.9975 58.7694 16.7223 60.8711 16.7223H61.8629V14.6915Z" fill="#020202"/>
<path d="M62.7741 20.5715C62.7741 24.2081 65.0174 26.6168 68.4179 26.6168C71.2045 26.6168 73.3534 24.9402 73.8021 22.437H71.5823C71.1808 23.8067 70.0001 24.6332 68.4179 24.6332C66.3162 24.6332 64.9702 23.0274 64.9702 20.5479C64.9702 18.0447 66.4107 16.4389 68.5124 16.4389C70.0001 16.4389 71.1808 17.2182 71.5587 18.6823H73.7784C73.377 16.1083 71.3461 14.4553 68.4416 14.4553C65.0647 14.4553 62.7741 16.9585 62.7741 20.5715Z" fill="#020202"/>
<path d="M78.3639 26.3098V20.0283C78.3639 18.0447 79.521 16.4862 81.6699 16.4862C83.323 16.4862 84.4328 17.4307 84.4328 19.7686V26.3334H86.6526V19.2727C86.6526 16.3209 85.2357 14.4553 82.2839 14.4553C80.4892 14.4553 79.096 15.3054 78.3639 16.557V8.95312H76.1441V26.3098H78.3639Z" fill="#020202"/>
<path d="M90.8134 12.0466C91.6163 12.0466 92.2775 11.3854 92.2775 10.5825C92.2775 9.75602 91.6163 9.11843 90.8134 9.11843C90.0105 9.11843 89.3493 9.75602 89.3493 10.5825C89.3493 11.3854 90.0105 12.0466 90.8134 12.0466ZM89.7271 26.3334H91.9469V14.7859H89.7271V26.3334Z" fill="#020202"/>
<path d="M98.4283 26.3334V16.6515H100.695V14.7859H98.4283V11.1729H96.2086V14.7859H93.9416V16.6515H96.2086V26.3334H98.4283Z" fill="#020202"/>
<path d="M107.555 26.6168C110.412 26.6168 112.349 25.2236 112.915 22.744H110.837C110.459 24.0664 109.326 24.7749 107.602 24.7749C105.406 24.7749 104.131 23.4288 103.965 20.9965L112.892 20.9729V20.1464C112.892 16.7223 110.743 14.4553 107.46 14.4553C104.107 14.4553 101.816 16.9585 101.816 20.5715C101.816 24.1609 104.154 26.6168 107.555 26.6168ZM107.46 16.3209C109.42 16.3209 110.672 17.5961 110.672 19.5088H104.013C104.296 17.478 105.524 16.3209 107.46 16.3209Z" fill="#020202"/>
<path d="M114.615 20.5715C114.615 24.2081 116.859 26.6168 120.259 26.6168C123.046 26.6168 125.195 24.9402 125.643 22.437H123.424C123.022 23.8067 121.841 24.6332 120.259 24.6332C118.158 24.6332 116.812 23.0274 116.812 20.5479C116.812 18.0447 118.252 16.4389 120.354 16.4389C121.841 16.4389 123.022 17.2182 123.4 18.6823H125.62C125.218 16.1083 123.187 14.4553 120.283 14.4553C116.906 14.4553 114.615 16.9585 114.615 20.5715Z" fill="#020202"/>
<path d="M131.244 26.3334V16.6515H133.511V14.7859H131.244V11.1729H129.024V14.7859H126.757V16.6515H129.024V26.3334H131.244Z" fill="#020202"/>
<path d="M143.485 14.7859V20.8785C143.485 23.358 142.375 24.6568 140.344 24.6568C138.644 24.6568 137.581 23.7122 137.581 21.2327V14.7859H135.362V21.9647C135.362 24.7985 136.873 26.6168 139.565 26.6168C141.265 26.6168 142.8 25.7903 143.461 24.586L143.698 26.3334H145.681V14.7859H143.485Z" fill="#020202"/>
<path d="M155.514 14.6915C155.065 14.597 154.735 14.5498 154.333 14.5498C152.751 14.5498 151.594 15.3527 151.122 16.557L150.98 14.8095H148.902V26.3334H151.122V20.2173C151.122 17.9975 152.42 16.7223 154.522 16.7223H155.514V14.6915Z" fill="#020202"/>
<path d="M162.163 26.6168C165.021 26.6168 166.957 25.2236 167.524 22.744H165.446C165.068 24.0664 163.935 24.7749 162.211 24.7749C160.015 24.7749 158.739 23.4288 158.574 20.9965L167.5 20.9729V20.1464C167.5 16.7223 165.351 14.4553 162.069 14.4553C158.716 14.4553 156.425 16.9585 156.425 20.5715C156.425 24.1609 158.763 26.6168 162.163 26.6168ZM162.069 16.3209C164.029 16.3209 165.281 17.5961 165.281 19.5088H158.621C158.905 17.478 160.133 16.3209 162.069 16.3209Z" fill="#020202"/>
<path d="M168.752 14.7859V16.6515H170.452V26.3334H172.672V16.6515H175.411V14.7859H172.672V12.944C172.672 11.6924 173.05 10.9604 174.49 10.9604H175.482V9.04758C175.033 8.97674 174.537 8.95312 174.112 8.95312C172.011 8.95312 170.452 10.1102 170.452 12.944V14.7859H168.752Z" fill="#020202"/>
<path d="M176.373 20.5479C176.373 24.1137 178.923 26.6168 182.395 26.6168C185.842 26.6168 188.393 24.1137 188.393 20.5479C188.393 16.9821 185.842 14.4789 182.395 14.4789C178.923 14.4789 176.373 16.9821 176.373 20.5479ZM178.616 20.5479C178.616 18.1392 180.151 16.4626 182.395 16.4626C184.614 16.4626 186.173 18.1392 186.173 20.5479C186.173 22.9566 184.614 24.6332 182.395 24.6332C180.151 24.6332 178.616 22.9566 178.616 20.5479Z" fill="#020202"/>
<path d="M193.117 26.3334V8.95312H190.897V26.3334H193.117Z" fill="#020202"/>
<path d="M197.471 12.0466C198.274 12.0466 198.935 11.3854 198.935 10.5825C198.935 9.75602 198.274 9.11843 197.471 9.11843C196.668 9.11843 196.007 9.75602 196.007 10.5825C196.007 11.3854 196.668 12.0466 197.471 12.0466ZM196.385 26.3334H198.604V14.7859H196.385V26.3334Z" fill="#020202"/>
<path d="M201.071 20.5479C201.071 24.1137 203.622 26.6168 207.093 26.6168C210.541 26.6168 213.091 24.1137 213.091 20.5479C213.091 16.9821 210.541 14.4789 207.093 14.4789C203.622 14.4789 201.071 16.9821 201.071 20.5479ZM203.315 20.5479C203.315 18.1392 204.85 16.4626 207.093 16.4626C209.313 16.4626 210.871 18.1392 210.871 20.5479C210.871 22.9566 209.313 24.6332 207.093 24.6332C204.85 24.6332 203.315 22.9566 203.315 20.5479Z" fill="#020202"/>
<path d="M226.634 17.8086L220.778 26.3334H223.493L228.074 19.5797C228.641 20.5715 229.279 21.6105 229.94 22.5787L232.561 26.3334H235.3L229.515 17.785L235.23 9.26011H232.561L228.051 16.0611C227.555 15.1165 226.988 14.1719 226.232 13.0621L223.564 9.26011H220.801L226.634 17.8086Z" fill="#020202"/>
</svg>
