<svg width="64" height="74" viewBox="0 0 64 74" fill="none" xmlns="http://www.w3.org/2000/svg">
<path d="M31.7332 1C25.7818 1 20.0742 3.36418 15.8659 7.57245C11.6576 11.7807 9.29346 17.4883 9.29346 23.4397C9.29346 29.3911 11.6576 35.0988 15.8659 39.307C20.0742 43.5153 25.7818 45.8795 31.7332 45.8795C37.6846 45.8795 43.3922 43.5153 47.6005 39.307C51.8088 35.0988 54.1729 29.3911 54.1729 23.4397C54.1729 17.4883 51.8088 11.7807 47.6005 7.57245C43.3922 3.36418 37.6846 1 31.7332 1Z" stroke="#020202" stroke-width="2"/>
<path d="M46.8795 39.708C42.9525 43.635 37.3426 45.8789 31.7327 45.8789C26.1227 45.8789 20.5128 43.635 16.5858 39.708L2 62.7087H14.3419L19.9518 71.6846L31.7327 50.9279L43.5135 71.6846L49.1235 62.7087H61.4653L46.8795 39.708Z" stroke="#020202" stroke-width="2"/>
</svg>
