<svg width="80" height="72" viewBox="0 0 80 72" fill="none" xmlns="http://www.w3.org/2000/svg">
<path d="M15.7049 70.8934H5.20211C2.88098 70.8934 1.00098 69.0134 1.00098 66.6922V56.1894C1.00098 53.8683 2.88098 51.9883 5.20211 51.9883H15.7049C18.0261 51.9883 19.9061 53.8683 19.9061 56.1894V66.6922C19.9061 69.0134 18.0261 70.8934 15.7049 70.8934Z" stroke="#020202" stroke-width="2" stroke-linecap="round" stroke-linejoin="round"/>
<path d="M10.4536 51.9886V39.3852C10.4536 37.0641 12.3336 35.1841 14.6547 35.1841H65.0683C67.3894 35.1841 69.2694 37.0641 69.2694 39.3852V51.9886" stroke="#020202" stroke-width="2" stroke-linecap="round" stroke-linejoin="round"/>
<path d="M74.5208 70.8934H64.018C61.6969 70.8934 59.8169 69.0134 59.8169 66.6922V56.1894C59.8169 53.8683 61.6969 51.9883 64.018 51.9883H74.5208C76.842 51.9883 78.722 53.8683 78.722 56.1894V66.6922C78.722 69.0134 76.842 70.8934 74.5208 70.8934Z" stroke="#020202" stroke-width="2" stroke-linecap="round" stroke-linejoin="round"/>
<path d="M45.1126 70.8934H34.6098C32.2887 70.8934 30.4087 69.0134 30.4087 66.6922V56.1894C30.4087 53.8683 32.2887 51.9883 34.6098 51.9883H45.1126C47.4338 51.9883 49.3138 53.8683 49.3138 56.1894V66.6922C49.3138 69.0134 47.4338 70.8934 45.1126 70.8934Z" stroke="#020202" stroke-width="2" stroke-linecap="round" stroke-linejoin="round"/>
<path d="M45.1126 20.4798H34.6098C32.2887 20.4798 30.4087 18.5998 30.4087 16.2787V5.77584C30.4087 3.45471 32.2887 1.57471 34.6098 1.57471H45.1126C47.4338 1.57471 49.3138 3.45471 49.3138 5.77584V16.2787C49.3138 18.5998 47.4338 20.4798 45.1126 20.4798Z" stroke="#020202" stroke-width="2" stroke-linecap="round" stroke-linejoin="round"/>
<path d="M39.8613 20.48V51.9885" stroke="#020202" stroke-width="2" stroke-linecap="round" stroke-linejoin="round"/>
</svg>
